<?xml version="1.0" encoding="utf-8" standalone="no"?>
<!DOCTYPE svg PUBLIC "-//W3C//DTD SVG 1.1//EN"
  "http://www.w3.org/Graphics/SVG/1.1/DTD/svg11.dtd">
<svg xmlns:xlink="http://www.w3.org/1999/xlink" width="720pt" height="432pt" viewBox="0 0 720 432" xmlns="http://www.w3.org/2000/svg" version="1.1">
 <metadata>
  <rdf:RDF xmlns:dc="http://purl.org/dc/elements/1.1/" xmlns:cc="http://creativecommons.org/ns#" xmlns:rdf="http://www.w3.org/1999/02/22-rdf-syntax-ns#">
   <cc:Work>
    <dc:type rdf:resource="http://purl.org/dc/dcmitype/StillImage"/>
    <dc:date>2025-07-02T20:59:39.041161</dc:date>
    <dc:format>image/svg+xml</dc:format>
    <dc:creator>
     <cc:Agent>
      <dc:title>Matplotlib v3.8.4, https://matplotlib.org/</dc:title>
     </cc:Agent>
    </dc:creator>
   </cc:Work>
  </rdf:RDF>
 </metadata>
 <defs>
  <style type="text/css">*{stroke-linejoin: round; stroke-linecap: butt}</style>
 </defs>
 <g id="figure_1">
  <g id="patch_1">
   <path d="M 0 432 
L 720 432 
L 720 0 
L 0 0 
z
" style="fill: #ffffff"/>
  </g>
  <g id="axes_1">
   <g id="patch_2">
    <path d="M 90 384.48 
L 648 384.48 
L 648 51.84 
L 90 51.84 
z
" style="fill: #ffffff"/>
   </g>
   <g id="patch_3">
    <path d="M 90 384.48 
L 90 51.84 
L 480.6 51.84 
L 480.6 384.48 
z
" clip-path="url(#pbbef50d211)" style="fill: #0000ff; opacity: 0.05"/>
   </g>
   <g id="patch_4">
    <path d="M 480.6 384.48 
L 480.6 51.84 
L 648 51.84 
L 648 384.48 
z
" clip-path="url(#pbbef50d211)" style="fill: #ff0000; opacity: 0.05"/>
   </g>
   <g id="matplotlib.axis_1">
    <g id="xtick_1">
     <g id="line2d_1">
      <path d="M 90 384.48 
L 90 51.84 
" clip-path="url(#pbbef50d211)" style="fill: none; stroke: #b0b0b0; stroke-width: 0.8; stroke-linecap: square"/>
     </g>
     <g id="line2d_2">
      <defs>
       <path id="maf99c7aa15" d="M 0 0 
L 0 3.5 
" style="stroke: #000000; stroke-width: 0.8"/>
      </defs>
      <g>
       <use xlink:href="#maf99c7aa15" x="90" y="384.48" style="stroke: #000000; stroke-width: 0.8"/>
      </g>
     </g>
     <g id="text_1">
      <!-- 0.0 -->
      <g transform="translate(78.75 402.47875) scale(0.18 -0.18)">
       <defs>
        <path id="TimesNewRomanPSMT-30" d="M 231 2094 
Q 231 2819 450 3342 
Q 669 3866 1031 4122 
Q 1313 4325 1613 4325 
Q 2100 4325 2488 3828 
Q 2972 3213 2972 2159 
Q 2972 1422 2759 906 
Q 2547 391 2217 158 
Q 1888 -75 1581 -75 
Q 975 -75 572 641 
Q 231 1244 231 2094 
z
M 844 2016 
Q 844 1141 1059 588 
Q 1238 122 1591 122 
Q 1759 122 1940 273 
Q 2122 425 2216 781 
Q 2359 1319 2359 2297 
Q 2359 3022 2209 3506 
Q 2097 3866 1919 4016 
Q 1791 4119 1609 4119 
Q 1397 4119 1231 3928 
Q 1006 3669 925 3112 
Q 844 2556 844 2016 
z
" transform="scale(0.015625)"/>
        <path id="TimesNewRomanPSMT-2e" d="M 800 606 
Q 947 606 1047 504 
Q 1147 403 1147 259 
Q 1147 116 1045 14 
Q 944 -88 800 -88 
Q 656 -88 554 14 
Q 453 116 453 259 
Q 453 406 554 506 
Q 656 606 800 606 
z
" transform="scale(0.015625)"/>
       </defs>
       <use xlink:href="#TimesNewRomanPSMT-30"/>
       <use xlink:href="#TimesNewRomanPSMT-2e" x="50"/>
       <use xlink:href="#TimesNewRomanPSMT-30" x="75"/>
      </g>
     </g>
    </g>
    <g id="xtick_2">
     <g id="line2d_3">
      <path d="M 145.8 384.48 
L 145.8 51.84 
" clip-path="url(#pbbef50d211)" style="fill: none; stroke: #b0b0b0; stroke-width: 0.8; stroke-linecap: square"/>
     </g>
     <g id="line2d_4">
      <g>
       <use xlink:href="#maf99c7aa15" x="145.8" y="384.48" style="stroke: #000000; stroke-width: 0.8"/>
      </g>
     </g>
     <g id="text_2">
      <!-- 0.1 -->
      <g transform="translate(134.55 402.47875) scale(0.18 -0.18)">
       <defs>
        <path id="TimesNewRomanPSMT-31" d="M 750 3822 
L 1781 4325 
L 1884 4325 
L 1884 747 
Q 1884 391 1914 303 
Q 1944 216 2037 169 
Q 2131 122 2419 116 
L 2419 0 
L 825 0 
L 825 116 
Q 1125 122 1212 167 
Q 1300 213 1334 289 
Q 1369 366 1369 747 
L 1369 3034 
Q 1369 3497 1338 3628 
Q 1316 3728 1258 3775 
Q 1200 3822 1119 3822 
Q 1003 3822 797 3725 
L 750 3822 
z
" transform="scale(0.015625)"/>
       </defs>
       <use xlink:href="#TimesNewRomanPSMT-30"/>
       <use xlink:href="#TimesNewRomanPSMT-2e" x="50"/>
       <use xlink:href="#TimesNewRomanPSMT-31" x="75"/>
      </g>
     </g>
    </g>
    <g id="xtick_3">
     <g id="line2d_5">
      <path d="M 201.6 384.48 
L 201.6 51.84 
" clip-path="url(#pbbef50d211)" style="fill: none; stroke: #b0b0b0; stroke-width: 0.8; stroke-linecap: square"/>
     </g>
     <g id="line2d_6">
      <g>
       <use xlink:href="#maf99c7aa15" x="201.6" y="384.48" style="stroke: #000000; stroke-width: 0.8"/>
      </g>
     </g>
     <g id="text_3">
      <!-- 0.2 -->
      <g transform="translate(190.35 402.47875) scale(0.18 -0.18)">
       <defs>
        <path id="TimesNewRomanPSMT-32" d="M 2934 816 
L 2638 0 
L 138 0 
L 138 116 
Q 1241 1122 1691 1759 
Q 2141 2397 2141 2925 
Q 2141 3328 1894 3587 
Q 1647 3847 1303 3847 
Q 991 3847 742 3664 
Q 494 3481 375 3128 
L 259 3128 
Q 338 3706 661 4015 
Q 984 4325 1469 4325 
Q 1984 4325 2329 3994 
Q 2675 3663 2675 3213 
Q 2675 2891 2525 2569 
Q 2294 2063 1775 1497 
Q 997 647 803 472 
L 1909 472 
Q 2247 472 2383 497 
Q 2519 522 2628 598 
Q 2738 675 2819 816 
L 2934 816 
z
" transform="scale(0.015625)"/>
       </defs>
       <use xlink:href="#TimesNewRomanPSMT-30"/>
       <use xlink:href="#TimesNewRomanPSMT-2e" x="50"/>
       <use xlink:href="#TimesNewRomanPSMT-32" x="75"/>
      </g>
     </g>
    </g>
    <g id="xtick_4">
     <g id="line2d_7">
      <path d="M 257.4 384.48 
L 257.4 51.84 
" clip-path="url(#pbbef50d211)" style="fill: none; stroke: #b0b0b0; stroke-width: 0.8; stroke-linecap: square"/>
     </g>
     <g id="line2d_8">
      <g>
       <use xlink:href="#maf99c7aa15" x="257.4" y="384.48" style="stroke: #000000; stroke-width: 0.8"/>
      </g>
     </g>
     <g id="text_4">
      <!-- 0.3 -->
      <g transform="translate(246.15 402.47875) scale(0.18 -0.18)">
       <defs>
        <path id="TimesNewRomanPSMT-33" d="M 325 3431 
Q 506 3859 782 4092 
Q 1059 4325 1472 4325 
Q 1981 4325 2253 3994 
Q 2459 3747 2459 3466 
Q 2459 3003 1878 2509 
Q 2269 2356 2469 2072 
Q 2669 1788 2669 1403 
Q 2669 853 2319 450 
Q 1863 -75 997 -75 
Q 569 -75 414 31 
Q 259 138 259 259 
Q 259 350 332 419 
Q 406 488 509 488 
Q 588 488 669 463 
Q 722 447 909 348 
Q 1097 250 1169 231 
Q 1284 197 1416 197 
Q 1734 197 1970 444 
Q 2206 691 2206 1028 
Q 2206 1275 2097 1509 
Q 2016 1684 1919 1775 
Q 1784 1900 1550 2001 
Q 1316 2103 1072 2103 
L 972 2103 
L 972 2197 
Q 1219 2228 1467 2375 
Q 1716 2522 1828 2728 
Q 1941 2934 1941 3181 
Q 1941 3503 1739 3701 
Q 1538 3900 1238 3900 
Q 753 3900 428 3381 
L 325 3431 
z
" transform="scale(0.015625)"/>
       </defs>
       <use xlink:href="#TimesNewRomanPSMT-30"/>
       <use xlink:href="#TimesNewRomanPSMT-2e" x="50"/>
       <use xlink:href="#TimesNewRomanPSMT-33" x="75"/>
      </g>
     </g>
    </g>
    <g id="xtick_5">
     <g id="line2d_9">
      <path d="M 313.2 384.48 
L 313.2 51.84 
" clip-path="url(#pbbef50d211)" style="fill: none; stroke: #b0b0b0; stroke-width: 0.8; stroke-linecap: square"/>
     </g>
     <g id="line2d_10">
      <g>
       <use xlink:href="#maf99c7aa15" x="313.2" y="384.48" style="stroke: #000000; stroke-width: 0.8"/>
      </g>
     </g>
     <g id="text_5">
      <!-- 0.4 -->
      <g transform="translate(301.95 402.47875) scale(0.18 -0.18)">
       <defs>
        <path id="TimesNewRomanPSMT-34" d="M 2978 1563 
L 2978 1119 
L 2409 1119 
L 2409 0 
L 1894 0 
L 1894 1119 
L 100 1119 
L 100 1519 
L 2066 4325 
L 2409 4325 
L 2409 1563 
L 2978 1563 
z
M 1894 1563 
L 1894 3666 
L 406 1563 
L 1894 1563 
z
" transform="scale(0.015625)"/>
       </defs>
       <use xlink:href="#TimesNewRomanPSMT-30"/>
       <use xlink:href="#TimesNewRomanPSMT-2e" x="50"/>
       <use xlink:href="#TimesNewRomanPSMT-34" x="75"/>
      </g>
     </g>
    </g>
    <g id="xtick_6">
     <g id="line2d_11">
      <path d="M 369 384.48 
L 369 51.84 
" clip-path="url(#pbbef50d211)" style="fill: none; stroke: #b0b0b0; stroke-width: 0.8; stroke-linecap: square"/>
     </g>
     <g id="line2d_12">
      <g>
       <use xlink:href="#maf99c7aa15" x="369" y="384.48" style="stroke: #000000; stroke-width: 0.8"/>
      </g>
     </g>
     <g id="text_6">
      <!-- 0.5 -->
      <g transform="translate(357.75 402.47875) scale(0.18 -0.18)">
       <defs>
        <path id="TimesNewRomanPSMT-35" d="M 2778 4238 
L 2534 3706 
L 1259 3706 
L 981 3138 
Q 1809 3016 2294 2522 
Q 2709 2097 2709 1522 
Q 2709 1188 2573 903 
Q 2438 619 2231 419 
Q 2025 219 1772 97 
Q 1413 -75 1034 -75 
Q 653 -75 479 54 
Q 306 184 306 341 
Q 306 428 378 495 
Q 450 563 559 563 
Q 641 563 702 538 
Q 763 513 909 409 
Q 1144 247 1384 247 
Q 1750 247 2026 523 
Q 2303 800 2303 1197 
Q 2303 1581 2056 1914 
Q 1809 2247 1375 2428 
Q 1034 2569 447 2591 
L 1259 4238 
L 2778 4238 
z
" transform="scale(0.015625)"/>
       </defs>
       <use xlink:href="#TimesNewRomanPSMT-30"/>
       <use xlink:href="#TimesNewRomanPSMT-2e" x="50"/>
       <use xlink:href="#TimesNewRomanPSMT-35" x="75"/>
      </g>
     </g>
    </g>
    <g id="xtick_7">
     <g id="line2d_13">
      <path d="M 424.8 384.48 
L 424.8 51.84 
" clip-path="url(#pbbef50d211)" style="fill: none; stroke: #b0b0b0; stroke-width: 0.8; stroke-linecap: square"/>
     </g>
     <g id="line2d_14">
      <g>
       <use xlink:href="#maf99c7aa15" x="424.8" y="384.48" style="stroke: #000000; stroke-width: 0.8"/>
      </g>
     </g>
     <g id="text_7">
      <!-- 0.6 -->
      <g transform="translate(413.55 402.47875) scale(0.18 -0.18)">
       <defs>
        <path id="TimesNewRomanPSMT-36" d="M 2869 4325 
L 2869 4209 
Q 2456 4169 2195 4045 
Q 1934 3922 1679 3669 
Q 1425 3416 1258 3105 
Q 1091 2794 978 2366 
Q 1428 2675 1881 2675 
Q 2316 2675 2634 2325 
Q 2953 1975 2953 1425 
Q 2953 894 2631 456 
Q 2244 -75 1606 -75 
Q 1172 -75 869 213 
Q 275 772 275 1663 
Q 275 2231 503 2743 
Q 731 3256 1154 3653 
Q 1578 4050 1965 4187 
Q 2353 4325 2688 4325 
L 2869 4325 
z
M 925 2138 
Q 869 1716 869 1456 
Q 869 1156 980 804 
Q 1091 453 1309 247 
Q 1469 100 1697 100 
Q 1969 100 2183 356 
Q 2397 613 2397 1088 
Q 2397 1622 2184 2012 
Q 1972 2403 1581 2403 
Q 1463 2403 1327 2353 
Q 1191 2303 925 2138 
z
" transform="scale(0.015625)"/>
       </defs>
       <use xlink:href="#TimesNewRomanPSMT-30"/>
       <use xlink:href="#TimesNewRomanPSMT-2e" x="50"/>
       <use xlink:href="#TimesNewRomanPSMT-36" x="75"/>
      </g>
     </g>
    </g>
    <g id="xtick_8">
     <g id="line2d_15">
      <path d="M 480.6 384.48 
L 480.6 51.84 
" clip-path="url(#pbbef50d211)" style="fill: none; stroke: #b0b0b0; stroke-width: 0.8; stroke-linecap: square"/>
     </g>
     <g id="line2d_16">
      <g>
       <use xlink:href="#maf99c7aa15" x="480.6" y="384.48" style="stroke: #000000; stroke-width: 0.8"/>
      </g>
     </g>
     <g id="text_8">
      <!-- 0.7 -->
      <g transform="translate(469.35 402.47875) scale(0.18 -0.18)">
       <defs>
        <path id="TimesNewRomanPSMT-37" d="M 644 4238 
L 2916 4238 
L 2916 4119 
L 1503 -88 
L 1153 -88 
L 2419 3728 
L 1253 3728 
Q 900 3728 750 3644 
Q 488 3500 328 3200 
L 238 3234 
L 644 4238 
z
" transform="scale(0.015625)"/>
       </defs>
       <use xlink:href="#TimesNewRomanPSMT-30"/>
       <use xlink:href="#TimesNewRomanPSMT-2e" x="50"/>
       <use xlink:href="#TimesNewRomanPSMT-37" x="75"/>
      </g>
     </g>
    </g>
    <g id="xtick_9">
     <g id="line2d_17">
      <path d="M 536.4 384.48 
L 536.4 51.84 
" clip-path="url(#pbbef50d211)" style="fill: none; stroke: #b0b0b0; stroke-width: 0.8; stroke-linecap: square"/>
     </g>
     <g id="line2d_18">
      <g>
       <use xlink:href="#maf99c7aa15" x="536.4" y="384.48" style="stroke: #000000; stroke-width: 0.8"/>
      </g>
     </g>
     <g id="text_9">
      <!-- 0.8 -->
      <g transform="translate(525.15 402.47875) scale(0.18 -0.18)">
       <defs>
        <path id="TimesNewRomanPSMT-38" d="M 1228 2134 
Q 725 2547 579 2797 
Q 434 3047 434 3316 
Q 434 3728 753 4026 
Q 1072 4325 1600 4325 
Q 2113 4325 2425 4047 
Q 2738 3769 2738 3413 
Q 2738 3175 2569 2928 
Q 2400 2681 1866 2347 
Q 2416 1922 2594 1678 
Q 2831 1359 2831 1006 
Q 2831 559 2490 242 
Q 2150 -75 1597 -75 
Q 994 -75 656 303 
Q 388 606 388 966 
Q 388 1247 577 1523 
Q 766 1800 1228 2134 
z
M 1719 2469 
Q 2094 2806 2194 3001 
Q 2294 3197 2294 3444 
Q 2294 3772 2109 3958 
Q 1925 4144 1606 4144 
Q 1288 4144 1088 3959 
Q 888 3775 888 3528 
Q 888 3366 970 3203 
Q 1053 3041 1206 2894 
L 1719 2469 
z
M 1375 2016 
Q 1116 1797 991 1539 
Q 866 1281 866 981 
Q 866 578 1086 336 
Q 1306 94 1647 94 
Q 1984 94 2187 284 
Q 2391 475 2391 747 
Q 2391 972 2272 1150 
Q 2050 1481 1375 2016 
z
" transform="scale(0.015625)"/>
       </defs>
       <use xlink:href="#TimesNewRomanPSMT-30"/>
       <use xlink:href="#TimesNewRomanPSMT-2e" x="50"/>
       <use xlink:href="#TimesNewRomanPSMT-38" x="75"/>
      </g>
     </g>
    </g>
    <g id="xtick_10">
     <g id="line2d_19">
      <path d="M 592.2 384.48 
L 592.2 51.84 
" clip-path="url(#pbbef50d211)" style="fill: none; stroke: #b0b0b0; stroke-width: 0.8; stroke-linecap: square"/>
     </g>
     <g id="line2d_20">
      <g>
       <use xlink:href="#maf99c7aa15" x="592.2" y="384.48" style="stroke: #000000; stroke-width: 0.8"/>
      </g>
     </g>
     <g id="text_10">
      <!-- 0.9 -->
      <g transform="translate(580.95 402.47875) scale(0.18 -0.18)">
       <defs>
        <path id="TimesNewRomanPSMT-39" d="M 338 -88 
L 338 28 
Q 744 34 1094 217 
Q 1444 400 1770 856 
Q 2097 1313 2225 1859 
Q 1734 1544 1338 1544 
Q 891 1544 572 1889 
Q 253 2234 253 2806 
Q 253 3363 572 3797 
Q 956 4325 1575 4325 
Q 2097 4325 2469 3894 
Q 2925 3359 2925 2575 
Q 2925 1869 2578 1258 
Q 2231 647 1613 244 
Q 1109 -88 516 -88 
L 338 -88 
z
M 2275 2091 
Q 2331 2497 2331 2741 
Q 2331 3044 2228 3395 
Q 2125 3747 1936 3934 
Q 1747 4122 1506 4122 
Q 1228 4122 1018 3872 
Q 809 3622 809 3128 
Q 809 2469 1088 2097 
Q 1291 1828 1588 1828 
Q 1731 1828 1928 1897 
Q 2125 1966 2275 2091 
z
" transform="scale(0.015625)"/>
       </defs>
       <use xlink:href="#TimesNewRomanPSMT-30"/>
       <use xlink:href="#TimesNewRomanPSMT-2e" x="50"/>
       <use xlink:href="#TimesNewRomanPSMT-39" x="75"/>
      </g>
     </g>
    </g>
    <g id="xtick_11">
     <g id="line2d_21">
      <path d="M 648 384.48 
L 648 51.84 
" clip-path="url(#pbbef50d211)" style="fill: none; stroke: #b0b0b0; stroke-width: 0.8; stroke-linecap: square"/>
     </g>
     <g id="line2d_22">
      <g>
       <use xlink:href="#maf99c7aa15" x="648" y="384.48" style="stroke: #000000; stroke-width: 0.8"/>
      </g>
     </g>
     <g id="text_11">
      <!-- 1.0 -->
      <g transform="translate(636.75 402.47875) scale(0.18 -0.18)">
       <use xlink:href="#TimesNewRomanPSMT-31"/>
       <use xlink:href="#TimesNewRomanPSMT-2e" x="50"/>
       <use xlink:href="#TimesNewRomanPSMT-30" x="75"/>
      </g>
     </g>
    </g>
    <g id="text_12">
     <!-- α -->
     <g transform="translate(364.284844 422.827812) scale(0.18 -0.18)">
      <defs>
       <path id="TimesNewRomanPSMT-3b1" d="M 2463 2863 
L 2994 2863 
L 2672 1416 
Q 2578 1003 2544 909 
Q 2669 334 2906 334 
Q 3188 334 3197 722 
L 3309 722 
Q 3300 359 3176 135 
Q 3053 -88 2853 -88 
Q 2688 -88 2606 46 
Q 2525 181 2431 597 
Q 2106 -88 1369 -88 
Q 866 -88 569 304 
Q 272 697 272 1428 
Q 272 2147 597 2547 
Q 922 2947 1378 2947 
Q 1700 2947 1906 2719 
Q 2113 2491 2272 1975 
L 2463 2863 
z
M 2188 1638 
Q 2041 2141 1859 2423 
Q 1678 2706 1425 2706 
Q 853 2706 853 1369 
Q 853 100 1400 100 
Q 1875 100 2103 1219 
L 2188 1638 
z
" transform="scale(0.015625)"/>
      </defs>
      <use xlink:href="#TimesNewRomanPSMT-3b1"/>
     </g>
    </g>
   </g>
   <g id="matplotlib.axis_2">
    <g id="ytick_1">
     <g id="line2d_23">
      <path d="M 90 384.48 
L 648 384.48 
" clip-path="url(#pbbef50d211)" style="fill: none; stroke: #b0b0b0; stroke-width: 0.8; stroke-linecap: square"/>
     </g>
     <g id="line2d_24">
      <defs>
       <path id="mb739e59ce5" d="M 0 0 
L -3.5 0 
" style="stroke: #000000; stroke-width: 0.8"/>
      </defs>
      <g>
       <use xlink:href="#mb739e59ce5" x="90" y="384.48" style="stroke: #000000; stroke-width: 0.8"/>
      </g>
     </g>
     <g id="text_13">
      <!-- 0 -->
      <g transform="translate(75.5 390.729375) scale(0.18 -0.18)">
       <use xlink:href="#TimesNewRomanPSMT-30"/>
      </g>
     </g>
    </g>
    <g id="ytick_2">
     <g id="line2d_25">
      <path d="M 90 317.952 
L 648 317.952 
" clip-path="url(#pbbef50d211)" style="fill: none; stroke: #b0b0b0; stroke-width: 0.8; stroke-linecap: square"/>
     </g>
     <g id="line2d_26">
      <g>
       <use xlink:href="#mb739e59ce5" x="90" y="317.952" style="stroke: #000000; stroke-width: 0.8"/>
      </g>
     </g>
     <g id="text_14">
      <!-- 20 -->
      <g transform="translate(66.5 324.201375) scale(0.18 -0.18)">
       <use xlink:href="#TimesNewRomanPSMT-32"/>
       <use xlink:href="#TimesNewRomanPSMT-30" x="50"/>
      </g>
     </g>
    </g>
    <g id="ytick_3">
     <g id="line2d_27">
      <path d="M 90 251.424 
L 648 251.424 
" clip-path="url(#pbbef50d211)" style="fill: none; stroke: #b0b0b0; stroke-width: 0.8; stroke-linecap: square"/>
     </g>
     <g id="line2d_28">
      <g>
       <use xlink:href="#mb739e59ce5" x="90" y="251.424" style="stroke: #000000; stroke-width: 0.8"/>
      </g>
     </g>
     <g id="text_15">
      <!-- 40 -->
      <g transform="translate(66.5 257.673375) scale(0.18 -0.18)">
       <use xlink:href="#TimesNewRomanPSMT-34"/>
       <use xlink:href="#TimesNewRomanPSMT-30" x="50"/>
      </g>
     </g>
    </g>
    <g id="ytick_4">
     <g id="line2d_29">
      <path d="M 90 184.896 
L 648 184.896 
" clip-path="url(#pbbef50d211)" style="fill: none; stroke: #b0b0b0; stroke-width: 0.8; stroke-linecap: square"/>
     </g>
     <g id="line2d_30">
      <g>
       <use xlink:href="#mb739e59ce5" x="90" y="184.896" style="stroke: #000000; stroke-width: 0.8"/>
      </g>
     </g>
     <g id="text_16">
      <!-- 60 -->
      <g transform="translate(66.5 191.145375) scale(0.18 -0.18)">
       <use xlink:href="#TimesNewRomanPSMT-36"/>
       <use xlink:href="#TimesNewRomanPSMT-30" x="50"/>
      </g>
     </g>
    </g>
    <g id="ytick_5">
     <g id="line2d_31">
      <path d="M 90 118.368 
L 648 118.368 
" clip-path="url(#pbbef50d211)" style="fill: none; stroke: #b0b0b0; stroke-width: 0.8; stroke-linecap: square"/>
     </g>
     <g id="line2d_32">
      <g>
       <use xlink:href="#mb739e59ce5" x="90" y="118.368" style="stroke: #000000; stroke-width: 0.8"/>
      </g>
     </g>
     <g id="text_17">
      <!-- 80 -->
      <g transform="translate(66.5 124.617375) scale(0.18 -0.18)">
       <use xlink:href="#TimesNewRomanPSMT-38"/>
       <use xlink:href="#TimesNewRomanPSMT-30" x="50"/>
      </g>
     </g>
    </g>
    <g id="ytick_6">
     <g id="line2d_33">
      <path d="M 90 51.84 
L 648 51.84 
" clip-path="url(#pbbef50d211)" style="fill: none; stroke: #b0b0b0; stroke-width: 0.8; stroke-linecap: square"/>
     </g>
     <g id="line2d_34">
      <g>
       <use xlink:href="#mb739e59ce5" x="90" y="51.84" style="stroke: #000000; stroke-width: 0.8"/>
      </g>
     </g>
     <g id="text_18">
      <!-- 100 -->
      <g transform="translate(57.5 58.089375) scale(0.18 -0.18)">
       <use xlink:href="#TimesNewRomanPSMT-31"/>
       <use xlink:href="#TimesNewRomanPSMT-30" x="50"/>
       <use xlink:href="#TimesNewRomanPSMT-30" x="100"/>
      </g>
     </g>
    </g>
    <g id="text_19">
     <!-- Precent@F1-score -->
     <g transform="translate(49.615938 284.927344) rotate(-90) scale(0.18 -0.18)">
      <defs>
       <path id="TimesNewRomanPSMT-50" d="M 1313 1984 
L 1313 750 
Q 1313 350 1400 253 
Q 1519 116 1759 116 
L 1922 116 
L 1922 0 
L 106 0 
L 106 116 
L 266 116 
Q 534 116 650 291 
Q 713 388 713 750 
L 713 3488 
Q 713 3888 628 3984 
Q 506 4122 266 4122 
L 106 4122 
L 106 4238 
L 1659 4238 
Q 2228 4238 2556 4120 
Q 2884 4003 3109 3725 
Q 3334 3447 3334 3066 
Q 3334 2547 2992 2222 
Q 2650 1897 2025 1897 
Q 1872 1897 1694 1919 
Q 1516 1941 1313 1984 
z
M 1313 2163 
Q 1478 2131 1606 2115 
Q 1734 2100 1825 2100 
Q 2150 2100 2386 2351 
Q 2622 2603 2622 3003 
Q 2622 3278 2509 3514 
Q 2397 3750 2190 3867 
Q 1984 3984 1722 3984 
Q 1563 3984 1313 3925 
L 1313 2163 
z
" transform="scale(0.015625)"/>
       <path id="TimesNewRomanPSMT-72" d="M 1038 2947 
L 1038 2303 
Q 1397 2947 1775 2947 
Q 1947 2947 2059 2842 
Q 2172 2738 2172 2600 
Q 2172 2478 2090 2393 
Q 2009 2309 1897 2309 
Q 1788 2309 1652 2417 
Q 1516 2525 1450 2525 
Q 1394 2525 1328 2463 
Q 1188 2334 1038 2041 
L 1038 669 
Q 1038 431 1097 309 
Q 1138 225 1241 169 
Q 1344 113 1538 113 
L 1538 0 
L 72 0 
L 72 113 
Q 291 113 397 181 
Q 475 231 506 341 
Q 522 394 522 644 
L 522 1753 
Q 522 2253 501 2348 
Q 481 2444 426 2487 
Q 372 2531 291 2531 
Q 194 2531 72 2484 
L 41 2597 
L 906 2947 
L 1038 2947 
z
" transform="scale(0.015625)"/>
       <path id="TimesNewRomanPSMT-65" d="M 681 1784 
Q 678 1147 991 784 
Q 1303 422 1725 422 
Q 2006 422 2214 576 
Q 2422 731 2563 1106 
L 2659 1044 
Q 2594 616 2278 264 
Q 1963 -88 1488 -88 
Q 972 -88 605 314 
Q 238 716 238 1394 
Q 238 2128 614 2539 
Q 991 2950 1559 2950 
Q 2041 2950 2350 2633 
Q 2659 2316 2659 1784 
L 681 1784 
z
M 681 1966 
L 2006 1966 
Q 1991 2241 1941 2353 
Q 1863 2528 1708 2628 
Q 1553 2728 1384 2728 
Q 1125 2728 920 2526 
Q 716 2325 681 1966 
z
" transform="scale(0.015625)"/>
       <path id="TimesNewRomanPSMT-63" d="M 2631 1088 
Q 2516 522 2178 217 
Q 1841 -88 1431 -88 
Q 944 -88 581 321 
Q 219 731 219 1428 
Q 219 2103 620 2525 
Q 1022 2947 1584 2947 
Q 2006 2947 2278 2723 
Q 2550 2500 2550 2259 
Q 2550 2141 2473 2067 
Q 2397 1994 2259 1994 
Q 2075 1994 1981 2113 
Q 1928 2178 1911 2362 
Q 1894 2547 1784 2644 
Q 1675 2738 1481 2738 
Q 1169 2738 978 2506 
Q 725 2200 725 1697 
Q 725 1184 976 792 
Q 1228 400 1656 400 
Q 1963 400 2206 609 
Q 2378 753 2541 1131 
L 2631 1088 
z
" transform="scale(0.015625)"/>
       <path id="TimesNewRomanPSMT-6e" d="M 1034 2341 
Q 1538 2947 1994 2947 
Q 2228 2947 2397 2830 
Q 2566 2713 2666 2444 
Q 2734 2256 2734 1869 
L 2734 647 
Q 2734 375 2778 278 
Q 2813 200 2889 156 
Q 2966 113 3172 113 
L 3172 0 
L 1756 0 
L 1756 113 
L 1816 113 
Q 2016 113 2095 173 
Q 2175 234 2206 353 
Q 2219 400 2219 647 
L 2219 1819 
Q 2219 2209 2117 2386 
Q 2016 2563 1775 2563 
Q 1403 2563 1034 2156 
L 1034 647 
Q 1034 356 1069 288 
Q 1113 197 1189 155 
Q 1266 113 1500 113 
L 1500 0 
L 84 0 
L 84 113 
L 147 113 
Q 366 113 442 223 
Q 519 334 519 647 
L 519 1709 
Q 519 2225 495 2337 
Q 472 2450 423 2490 
Q 375 2531 294 2531 
Q 206 2531 84 2484 
L 38 2597 
L 900 2947 
L 1034 2947 
L 1034 2341 
z
" transform="scale(0.015625)"/>
       <path id="TimesNewRomanPSMT-74" d="M 1031 3803 
L 1031 2863 
L 1700 2863 
L 1700 2644 
L 1031 2644 
L 1031 788 
Q 1031 509 1111 412 
Q 1191 316 1316 316 
Q 1419 316 1516 380 
Q 1613 444 1666 569 
L 1788 569 
Q 1678 263 1478 108 
Q 1278 -47 1066 -47 
Q 922 -47 784 33 
Q 647 113 581 261 
Q 516 409 516 719 
L 516 2644 
L 63 2644 
L 63 2747 
Q 234 2816 414 2980 
Q 594 3144 734 3369 
Q 806 3488 934 3803 
L 1031 3803 
z
" transform="scale(0.015625)"/>
       <path id="TimesNewRomanPSMT-40" d="M 4400 2994 
L 4034 1747 
Q 3831 1047 3787 859 
Q 3744 672 3744 559 
Q 3744 459 3811 390 
Q 3878 322 3978 322 
Q 4206 322 4526 550 
Q 4847 778 5075 1290 
Q 5303 1803 5303 2359 
Q 5303 2894 5045 3347 
Q 4788 3800 4317 4042 
Q 3847 4284 3278 4284 
Q 2556 4284 1937 3901 
Q 1319 3519 958 2800 
Q 597 2081 597 1306 
Q 597 588 914 0 
Q 1231 -588 1806 -889 
Q 2381 -1191 3044 -1191 
Q 3866 -1191 4530 -750 
Q 5194 -309 5556 538 
L 5738 538 
Q 5456 -319 4715 -850 
Q 3975 -1381 3028 -1381 
Q 2284 -1381 1646 -1029 
Q 1009 -678 656 -32 
Q 303 613 303 1388 
Q 303 2213 690 2927 
Q 1078 3641 1776 4042 
Q 2475 4444 3259 4444 
Q 3906 4444 4426 4176 
Q 4947 3909 5219 3395 
Q 5491 2881 5491 2303 
Q 5491 1731 5236 1170 
Q 4981 609 4587 353 
Q 4194 97 3766 97 
Q 3528 97 3408 209 
Q 3288 322 3288 525 
Q 3288 700 3344 984 
Q 2881 425 2603 259 
Q 2325 94 2113 94 
Q 1891 94 1719 292 
Q 1547 491 1547 822 
Q 1547 1275 1842 1837 
Q 2138 2400 2625 2753 
Q 2984 3013 3269 3013 
Q 3478 3013 3617 2905 
Q 3756 2797 3806 2581 
L 3909 2925 
L 4400 2994 
z
M 3303 2866 
Q 3069 2866 2828 2619 
Q 2475 2256 2225 1641 
Q 2041 1191 2041 916 
Q 2041 719 2152 595 
Q 2263 472 2400 472 
Q 2581 472 2781 609 
Q 2981 747 3200 1033 
Q 3419 1319 3519 1606 
Q 3694 2103 3694 2416 
Q 3694 2622 3580 2744 
Q 3466 2866 3303 2866 
z
" transform="scale(0.015625)"/>
       <path id="TimesNewRomanPSMT-46" d="M 1309 4006 
L 1309 2341 
L 2081 2341 
Q 2347 2341 2470 2458 
Q 2594 2575 2634 2922 
L 2750 2922 
L 2750 1488 
L 2634 1488 
Q 2631 1734 2570 1850 
Q 2509 1966 2401 2023 
Q 2294 2081 2081 2081 
L 1309 2081 
L 1309 750 
Q 1309 428 1350 325 
Q 1381 247 1481 191 
Q 1619 116 1769 116 
L 1922 116 
L 1922 0 
L 103 0 
L 103 116 
L 253 116 
Q 516 116 634 269 
Q 709 369 709 750 
L 709 3488 
Q 709 3809 669 3913 
Q 638 3991 541 4047 
Q 406 4122 253 4122 
L 103 4122 
L 103 4238 
L 3256 4238 
L 3297 3306 
L 3188 3306 
Q 3106 3603 2998 3742 
Q 2891 3881 2733 3943 
Q 2575 4006 2244 4006 
L 1309 4006 
z
" transform="scale(0.015625)"/>
       <path id="TimesNewRomanPSMT-2d" d="M 259 1672 
L 1875 1672 
L 1875 1200 
L 259 1200 
L 259 1672 
z
" transform="scale(0.015625)"/>
       <path id="TimesNewRomanPSMT-73" d="M 2050 2947 
L 2050 1972 
L 1947 1972 
Q 1828 2431 1642 2597 
Q 1456 2763 1169 2763 
Q 950 2763 815 2647 
Q 681 2531 681 2391 
Q 681 2216 781 2091 
Q 878 1963 1175 1819 
L 1631 1597 
Q 2266 1288 2266 781 
Q 2266 391 1970 151 
Q 1675 -88 1309 -88 
Q 1047 -88 709 6 
Q 606 38 541 38 
Q 469 38 428 -44 
L 325 -44 
L 325 978 
L 428 978 
Q 516 541 762 319 
Q 1009 97 1316 97 
Q 1531 97 1667 223 
Q 1803 350 1803 528 
Q 1803 744 1651 891 
Q 1500 1038 1047 1263 
Q 594 1488 453 1669 
Q 313 1847 313 2119 
Q 313 2472 555 2709 
Q 797 2947 1181 2947 
Q 1350 2947 1591 2875 
Q 1750 2828 1803 2828 
Q 1853 2828 1881 2850 
Q 1909 2872 1947 2947 
L 2050 2947 
z
" transform="scale(0.015625)"/>
       <path id="TimesNewRomanPSMT-6f" d="M 1600 2947 
Q 2250 2947 2644 2453 
Q 2978 2031 2978 1484 
Q 2978 1100 2793 706 
Q 2609 313 2286 112 
Q 1963 -88 1566 -88 
Q 919 -88 538 428 
Q 216 863 216 1403 
Q 216 1797 411 2186 
Q 606 2575 925 2761 
Q 1244 2947 1600 2947 
z
M 1503 2744 
Q 1338 2744 1170 2645 
Q 1003 2547 900 2300 
Q 797 2053 797 1666 
Q 797 1041 1045 587 
Q 1294 134 1700 134 
Q 2003 134 2200 384 
Q 2397 634 2397 1244 
Q 2397 2006 2069 2444 
Q 1847 2744 1503 2744 
z
" transform="scale(0.015625)"/>
      </defs>
      <use xlink:href="#TimesNewRomanPSMT-50"/>
      <use xlink:href="#TimesNewRomanPSMT-72" x="55.615234"/>
      <use xlink:href="#TimesNewRomanPSMT-65" x="88.916016"/>
      <use xlink:href="#TimesNewRomanPSMT-63" x="133.300781"/>
      <use xlink:href="#TimesNewRomanPSMT-65" x="177.685547"/>
      <use xlink:href="#TimesNewRomanPSMT-6e" x="222.070312"/>
      <use xlink:href="#TimesNewRomanPSMT-74" x="272.070312"/>
      <use xlink:href="#TimesNewRomanPSMT-40" x="299.853516"/>
      <use xlink:href="#TimesNewRomanPSMT-46" x="391.943359"/>
      <use xlink:href="#TimesNewRomanPSMT-31" x="447.558594"/>
      <use xlink:href="#TimesNewRomanPSMT-2d" x="497.558594"/>
      <use xlink:href="#TimesNewRomanPSMT-73" x="530.859375"/>
      <use xlink:href="#TimesNewRomanPSMT-63" x="569.775391"/>
      <use xlink:href="#TimesNewRomanPSMT-6f" x="614.160156"/>
      <use xlink:href="#TimesNewRomanPSMT-72" x="664.160156"/>
      <use xlink:href="#TimesNewRomanPSMT-65" x="697.460938"/>
     </g>
    </g>
   </g>
   <g id="line2d_35">
    <defs>
     <path id="m91685fbfba" d="M -5 5 
L 5 5 
L 5 -5 
L -5 -5 
z
" style="stroke: #ffa500; stroke-linejoin: miter"/>
    </defs>
    <g clip-path="url(#pbbef50d211)">
     <use xlink:href="#m91685fbfba" x="90" y="282.559104" style="fill: #ffa500; stroke: #ffa500; stroke-linejoin: miter"/>
     <use xlink:href="#m91685fbfba" x="145.8" y="216.929232" style="fill: #ffa500; stroke: #ffa500; stroke-linejoin: miter"/>
     <use xlink:href="#m91685fbfba" x="201.6" y="151.598736" style="fill: #ffa500; stroke: #ffa500; stroke-linejoin: miter"/>
     <use xlink:href="#m91685fbfba" x="257.4" y="118.86696" style="fill: #ffa500; stroke: #ffa500; stroke-linejoin: miter"/>
     <use xlink:href="#m91685fbfba" x="313.2" y="116.970912" style="fill: #ffa500; stroke: #ffa500; stroke-linejoin: miter"/>
     <use xlink:href="#m91685fbfba" x="369" y="130.67568" style="fill: #ffa500; stroke: #ffa500; stroke-linejoin: miter"/>
     <use xlink:href="#m91685fbfba" x="424.8" y="150.268176" style="fill: #ffa500; stroke: #ffa500; stroke-linejoin: miter"/>
     <use xlink:href="#m91685fbfba" x="480.6" y="182.700576" style="fill: #ffa500; stroke: #ffa500; stroke-linejoin: miter"/>
     <use xlink:href="#m91685fbfba" x="536.4" y="217.860624" style="fill: #ffa500; stroke: #ffa500; stroke-linejoin: miter"/>
     <use xlink:href="#m91685fbfba" x="592.2" y="267.656832" style="fill: #ffa500; stroke: #ffa500; stroke-linejoin: miter"/>
     <use xlink:href="#m91685fbfba" x="648" y="298.093392" style="fill: #ffa500; stroke: #ffa500; stroke-linejoin: miter"/>
    </g>
   </g>
   <g id="line2d_36">
    <path d="M 90 282.559104 
L 95.593985 277.12211 
L 101.18797 271.322127 
L 106.781955 265.199935 
L 113.774436 257.156212 
L 120.766917 248.752403 
L 129.157895 238.304663 
L 140.345865 223.984043 
L 162.721805 195.228023 
L 171.112782 184.825601 
L 178.105263 176.473404 
L 185.097744 168.493882 
L 190.691729 162.432114 
L 196.285714 156.700611 
L 201.879699 151.340154 
L 206.075188 147.583626 
L 210.270677 144.053714 
L 214.466165 140.746772 
L 218.661654 137.659155 
L 222.857143 134.787217 
L 227.052632 132.127312 
L 231.24812 129.675794 
L 235.443609 127.429017 
L 239.639098 125.383337 
L 243.834586 123.535106 
L 248.030075 121.88068 
L 252.225564 120.416412 
L 256.421053 119.138656 
L 260.616541 118.043507 
L 264.81203 117.12491 
L 270.406015 116.162462 
L 276 115.484375 
L 281.593985 115.07378 
L 287.18797 114.913805 
L 292.781955 114.987582 
L 298.37594 115.27824 
L 303.969925 115.768908 
L 310.962406 116.637809 
L 317.954887 117.760009 
L 324.947368 119.103665 
L 333.338346 120.964425 
L 341.729323 123.045215 
L 352.917293 126.068672 
L 371.097744 131.282568 
L 386.481203 135.826219 
L 396.270677 138.944113 
L 404.661654 141.864325 
L 411.654135 144.529385 
L 418.646617 147.450897 
L 424.240602 150.001703 
L 429.834586 152.759915 
L 436.827068 156.469572 
L 445.218045 161.227359 
L 455.007519 167.071362 
L 487.172932 186.559766 
L 509.548872 199.638356 
L 517.93985 204.865436 
L 524.932331 209.501609 
L 530.526316 213.447036 
L 536.120301 217.643532 
L 541.714286 222.116473 
L 548.706767 228.045715 
L 557.097744 235.531225 
L 568.285714 245.870916 
L 583.669173 260.096026 
L 592.06015 267.536061 
L 599.052632 273.410734 
L 604.646617 277.829105 
L 610.240602 281.944671 
L 614.43609 284.803366 
L 618.631579 287.443849 
L 622.827068 289.845597 
L 627.022556 291.988087 
L 631.218045 293.850797 
L 635.413534 295.413205 
L 639.609023 296.654788 
L 642.406015 297.29414 
L 645.203008 297.775702 
L 648 298.093392 
L 648 298.093392 
" clip-path="url(#pbbef50d211)" style="fill: none; stroke-dasharray: 7.4,3.2; stroke-dashoffset: 0; stroke: #ffa500; stroke-width: 2"/>
   </g>
   <g id="line2d_37">
    <defs>
     <path id="mad8e4a51fb" d="M 0 5 
C 1.326016 5 2.597899 4.473168 3.535534 3.535534 
C 4.473168 2.597899 5 1.326016 5 0 
C 5 -1.326016 4.473168 -2.597899 3.535534 -3.535534 
C 2.597899 -4.473168 1.326016 -5 0 -5 
C -1.326016 -5 -2.597899 -4.473168 -3.535534 -3.535534 
C -4.473168 -2.597899 -5 -1.326016 -5 0 
C -5 1.326016 -4.473168 2.597899 -3.535534 3.535534 
C -2.597899 4.473168 -1.326016 5 0 5 
z
" style="stroke: #ff0000"/>
    </defs>
    <g clip-path="url(#pbbef50d211)">
     <use xlink:href="#mad8e4a51fb" x="90" y="269.619408" style="fill: #ff0000; stroke: #ff0000"/>
     <use xlink:href="#mad8e4a51fb" x="145.8" y="232.330464" style="fill: #ff0000; stroke: #ff0000"/>
     <use xlink:href="#mad8e4a51fb" x="201.6" y="169.9272" style="fill: #ff0000; stroke: #ff0000"/>
     <use xlink:href="#mad8e4a51fb" x="257.4" y="121.52808" style="fill: #ff0000; stroke: #ff0000"/>
     <use xlink:href="#mad8e4a51fb" x="313.2" y="107.05824" style="fill: #ff0000; stroke: #ff0000"/>
     <use xlink:href="#mad8e4a51fb" x="369" y="124.85448" style="fill: #ff0000; stroke: #ff0000"/>
     <use xlink:href="#mad8e4a51fb" x="424.8" y="146.30976" style="fill: #ff0000; stroke: #ff0000"/>
     <use xlink:href="#mad8e4a51fb" x="480.6" y="165.802464" style="fill: #ff0000; stroke: #ff0000"/>
     <use xlink:href="#mad8e4a51fb" x="536.4" y="196.438608" style="fill: #ff0000; stroke: #ff0000"/>
     <use xlink:href="#mad8e4a51fb" x="592.2" y="241.27848" style="fill: #ff0000; stroke: #ff0000"/>
     <use xlink:href="#mad8e4a51fb" x="648" y="287.615232" style="fill: #ff0000; stroke: #ff0000"/>
    </g>
   </g>
   <g id="line2d_38">
    <path d="M 90 269.619408 
L 92.796992 269.018467 
L 95.593985 268.251037 
L 98.390977 267.322574 
L 102.586466 265.639878 
L 106.781955 263.625547 
L 110.977444 261.297994 
L 115.172932 258.675632 
L 119.368421 255.776876 
L 123.56391 252.620139 
L 127.759398 249.223833 
L 133.353383 244.35459 
L 138.947368 239.135829 
L 144.541353 233.611198 
L 151.533835 226.341771 
L 158.526316 218.747866 
L 168.315789 207.733586 
L 200.481203 171.144243 
L 207.473684 163.661014 
L 214.466165 156.49358 
L 221.458647 149.677613 
L 227.052632 144.501846 
L 232.646617 139.592074 
L 238.240602 134.966543 
L 243.834586 130.643503 
L 249.428571 126.641198 
L 255.022556 122.977877 
L 259.218045 120.463738 
L 263.413534 118.155416 
L 267.609023 116.054708 
L 271.804511 114.163221 
L 276 112.482568 
L 280.195489 111.014359 
L 284.390977 109.760203 
L 288.586466 108.721712 
L 292.781955 107.900495 
L 296.977444 107.298163 
L 301.172932 106.916327 
L 305.368421 106.756596 
L 309.56391 106.82058 
L 313.759398 107.109884 
L 317.954887 107.621289 
L 322.150376 108.338585 
L 326.345865 109.243389 
L 331.93985 110.709706 
L 337.533835 112.433124 
L 343.12782 114.370075 
L 350.120301 117.025166 
L 359.909774 121.026417 
L 383.684211 130.905167 
L 397.669173 136.424683 
L 410.255639 141.157023 
L 422.842105 145.637301 
L 435.428571 149.862443 
L 460.601504 158.24317 
L 470.390977 161.77901 
L 478.781955 165.055703 
L 485.774436 168.007873 
L 492.766917 171.181181 
L 499.759398 174.583111 
L 506.75188 178.221055 
L 513.744361 182.102407 
L 520.736842 186.234561 
L 527.729323 190.624908 
L 534.721805 195.280843 
L 541.714286 200.206914 
L 548.706767 205.383721 
L 557.097744 211.88265 
L 566.887218 219.791352 
L 578.075188 229.154786 
L 593.458647 242.367287 
L 618.631579 264.020587 
L 629.819549 273.334287 
L 639.609023 281.181831 
L 648 287.615232 
L 648 287.615232 
" clip-path="url(#pbbef50d211)" style="fill: none; stroke-dasharray: 12.8,3.2,2,3.2; stroke-dashoffset: 0; stroke: #ff0000; stroke-width: 2"/>
   </g>
   <g id="line2d_39">
    <defs>
     <path id="m2e5e3b22e9" d="M 0 -5 
L -5 5 
L 5 5 
z
" style="stroke: #0000ff; stroke-linejoin: miter"/>
    </defs>
    <g clip-path="url(#pbbef50d211)">
     <use xlink:href="#m2e5e3b22e9" x="90" y="251.424" style="fill: #0000ff; stroke: #0000ff; stroke-linejoin: miter"/>
     <use xlink:href="#m2e5e3b22e9" x="145.8" y="184.896" style="fill: #0000ff; stroke: #0000ff; stroke-linejoin: miter"/>
     <use xlink:href="#m2e5e3b22e9" x="201.6" y="135" style="fill: #0000ff; stroke: #0000ff; stroke-linejoin: miter"/>
     <use xlink:href="#m2e5e3b22e9" x="257.4" y="123.590448" style="fill: #0000ff; stroke: #0000ff; stroke-linejoin: miter"/>
     <use xlink:href="#m2e5e3b22e9" x="313.2" y="110.584224" style="fill: #0000ff; stroke: #0000ff; stroke-linejoin: miter"/>
     <use xlink:href="#m2e5e3b22e9" x="369" y="131.241168" style="fill: #0000ff; stroke: #0000ff; stroke-linejoin: miter"/>
     <use xlink:href="#m2e5e3b22e9" x="424.8" y="142.417872" style="fill: #0000ff; stroke: #0000ff; stroke-linejoin: miter"/>
     <use xlink:href="#m2e5e3b22e9" x="480.6" y="156.887712" style="fill: #0000ff; stroke: #0000ff; stroke-linejoin: miter"/>
     <use xlink:href="#m2e5e3b22e9" x="536.4" y="204.421968" style="fill: #0000ff; stroke: #0000ff; stroke-linejoin: miter"/>
     <use xlink:href="#m2e5e3b22e9" x="592.2" y="245.93544" style="fill: #0000ff; stroke: #0000ff; stroke-linejoin: miter"/>
     <use xlink:href="#m2e5e3b22e9" x="648" y="275.5404" style="fill: #0000ff; stroke: #0000ff; stroke-linejoin: miter"/>
    </g>
   </g>
   <g id="line2d_40">
    <path d="M 90 251.424 
L 95.593985 245.306874 
L 102.586466 237.320993 
L 110.977444 227.358504 
L 122.165414 213.68593 
L 141.744361 189.720396 
L 150.135338 179.836491 
L 157.12782 171.941823 
L 162.721805 165.914507 
L 168.315789 160.193339 
L 173.909774 154.824268 
L 178.105263 151.056169 
L 182.300752 147.531356 
L 186.496241 144.269211 
L 190.691729 141.289121 
L 194.887218 138.610468 
L 199.082707 136.252639 
L 203.278195 134.234371 
L 207.473684 132.549285 
L 211.669173 131.158377 
L 215.864662 130.020459 
L 220.06015 129.094347 
L 225.654135 128.117817 
L 232.646617 127.174973 
L 249.428571 125.082437 
L 255.022556 124.096656 
L 259.218045 123.162435 
L 264.81203 121.651954 
L 271.804511 119.4765 
L 288.586466 114.093445 
L 294.180451 112.606145 
L 298.37594 111.697662 
L 302.571429 111.014529 
L 306.766917 110.599883 
L 310.962406 110.496858 
L 313.759398 110.622566 
L 316.556391 110.911575 
L 320.75188 111.628433 
L 324.947368 112.648477 
L 329.142857 113.930275 
L 333.338346 115.432396 
L 338.932331 117.706339 
L 345.924812 120.846381 
L 364.105263 129.241485 
L 369.699248 131.50916 
L 375.293233 133.486799 
L 380.887218 135.189886 
L 386.481203 136.648194 
L 392.075188 137.891496 
L 399.067669 139.18863 
L 406.06015 140.25449 
L 414.451128 141.310117 
L 428.43609 142.789638 
L 438.225564 143.887594 
L 445.218045 144.887007 
L 450.81203 145.900132 
L 456.406015 147.164145 
L 460.601504 148.310688 
L 464.796992 149.653808 
L 468.992481 151.217271 
L 473.18797 153.024842 
L 477.383459 155.100286 
L 481.578947 157.467251 
L 485.774436 160.132514 
L 489.969925 163.068544 
L 494.165414 166.243647 
L 499.759398 170.794225 
L 505.353383 175.638344 
L 512.345865 181.991829 
L 524.932331 193.819706 
L 534.721805 202.907091 
L 541.714286 209.103385 
L 548.706767 215.001542 
L 555.699248 220.616632 
L 562.691729 225.964098 
L 569.684211 231.059386 
L 576.676692 235.91794 
L 585.067669 241.457459 
L 593.458647 246.705008 
L 601.849624 251.687274 
L 610.240602 256.430945 
L 620.030075 261.699272 
L 629.819549 266.721548 
L 641.007519 272.214368 
L 648 275.5404 
L 648 275.5404 
" clip-path="url(#pbbef50d211)" style="fill: none; stroke-dasharray: 12.8,3.2,2,3.2; stroke-dashoffset: 0; stroke: #0000ff; stroke-width: 2"/>
   </g>
   <g id="line2d_41">
    <defs>
     <path id="m66a097892a" d="M 0 -5 
L -5 5 
L 5 5 
z
" style="stroke: #008000; stroke-linejoin: miter"/>
    </defs>
    <g clip-path="url(#pbbef50d211)">
     <use xlink:href="#m66a097892a" x="90" y="304.945776" style="fill: #008000; stroke: #008000; stroke-linejoin: miter"/>
     <use xlink:href="#m66a097892a" x="145.8" y="222.517584" style="fill: #008000; stroke: #008000; stroke-linejoin: miter"/>
     <use xlink:href="#m66a097892a" x="201.6" y="183.765024" style="fill: #008000; stroke: #008000; stroke-linejoin: miter"/>
     <use xlink:href="#m66a097892a" x="257.4" y="144.613296" style="fill: #008000; stroke: #008000; stroke-linejoin: miter"/>
     <use xlink:href="#m66a097892a" x="313.2" y="120.8628" style="fill: #008000; stroke: #008000; stroke-linejoin: miter"/>
     <use xlink:href="#m66a097892a" x="369" y="134.201664" style="fill: #008000; stroke: #008000; stroke-linejoin: miter"/>
     <use xlink:href="#m66a097892a" x="424.8" y="149.702688" style="fill: #008000; stroke: #008000; stroke-linejoin: miter"/>
     <use xlink:href="#m66a097892a" x="480.6" y="175.781664" style="fill: #008000; stroke: #008000; stroke-linejoin: miter"/>
     <use xlink:href="#m66a097892a" x="536.4" y="210.209904" style="fill: #008000; stroke: #008000; stroke-linejoin: miter"/>
     <use xlink:href="#m66a097892a" x="592.2" y="249.361632" style="fill: #008000; stroke: #008000; stroke-linejoin: miter"/>
     <use xlink:href="#m66a097892a" x="648" y="267.55704" style="fill: #008000; stroke: #008000; stroke-linejoin: miter"/>
    </g>
   </g>
   <g id="line2d_42">
    <path d="M 90 304.945776 
L 94.195489 295.927699 
L 98.390977 287.461683 
L 102.586466 279.522918 
L 106.781955 272.086595 
L 110.977444 265.127905 
L 115.172932 258.622039 
L 119.368421 252.544187 
L 123.56391 246.869542 
L 127.759398 241.573293 
L 131.954887 236.630632 
L 136.150376 232.016749 
L 140.345865 227.706836 
L 144.541353 223.676083 
L 148.736842 219.899681 
L 154.330827 215.217255 
L 159.924812 210.884098 
L 165.518797 206.841402 
L 172.511278 202.106905 
L 180.902256 196.741577 
L 203.278195 182.664659 
L 211.669173 176.989582 
L 221.458647 170.096555 
L 255.022556 146.216624 
L 263.413534 140.668888 
L 270.406015 136.340145 
L 276 133.131529 
L 281.593985 130.196649 
L 285.789474 128.201571 
L 289.984962 126.403739 
L 294.180451 124.821698 
L 298.37594 123.473992 
L 302.571429 122.379166 
L 306.766917 121.555763 
L 310.962406 121.02233 
L 315.157895 120.796578 
L 319.353383 120.873754 
L 323.548872 121.224591 
L 327.744361 121.818582 
L 331.93985 122.625223 
L 337.533835 123.978804 
L 343.12782 125.583885 
L 350.120301 127.833745 
L 372.496241 135.274035 
L 380.887218 137.650178 
L 392.075188 140.548851 
L 408.857143 144.874145 
L 417.24812 147.276239 
L 424.240602 149.5124 
L 431.233083 152.02075 
L 438.225564 154.794612 
L 445.218045 157.807851 
L 453.609023 161.702906 
L 462 165.859844 
L 471.789474 170.980326 
L 482.977444 177.101709 
L 494.165414 183.452974 
L 505.353383 190.068944 
L 515.142857 196.112322 
L 524.932331 202.42641 
L 533.323308 208.078018 
L 541.714286 213.966387 
L 554.300752 223.102073 
L 571.082707 235.280669 
L 579.473684 241.124203 
L 586.466165 245.762474 
L 593.458647 250.123282 
L 599.052632 253.369849 
L 604.646617 256.366316 
L 610.240602 259.08045 
L 614.43609 260.911379 
L 618.631579 262.551765 
L 622.827068 263.988012 
L 627.022556 265.20652 
L 631.218045 266.193691 
L 635.413534 266.935927 
L 639.609023 267.419629 
L 643.804511 267.6312 
L 648 267.55704 
L 648 267.55704 
" clip-path="url(#pbbef50d211)" style="fill: none; stroke-dasharray: 2,3.3; stroke-dashoffset: 0; stroke: #008000; stroke-width: 2"/>
   </g>
   <g id="line2d_43">
    <path d="M 480.6 384.48 
L 480.6 51.84 
" clip-path="url(#pbbef50d211)" style="fill: none; stroke-dasharray: 3.7,1.6; stroke-dashoffset: 0; stroke: #808080"/>
   </g>
   <g id="line2d_44">
    <path d="M 313.2 384.48 
L 313.2 51.84 
" clip-path="url(#pbbef50d211)" style="fill: none; stroke-dasharray: 7.4,3.2; stroke-dashoffset: 0; stroke: #ff0000; stroke-width: 2"/>
   </g>
   <g id="patch_5">
    <path d="M 90 384.48 
L 90 51.84 
" style="fill: none; stroke: #000000; stroke-width: 0.8; stroke-linejoin: miter; stroke-linecap: square"/>
   </g>
   <g id="patch_6">
    <path d="M 648 384.48 
L 648 51.84 
" style="fill: none; stroke: #000000; stroke-width: 0.8; stroke-linejoin: miter; stroke-linecap: square"/>
   </g>
   <g id="patch_7">
    <path d="M 90 384.48 
L 648 384.48 
" style="fill: none; stroke: #000000; stroke-width: 0.8; stroke-linejoin: miter; stroke-linecap: square"/>
   </g>
   <g id="patch_8">
    <path d="M 90 51.84 
L 648 51.84 
" style="fill: none; stroke: #000000; stroke-width: 0.8; stroke-linejoin: miter; stroke-linecap: square"/>
   </g>
   <g id="text_20">
    <!-- Vsub &lt; Vproj -->
    <g style="fill: #0000ff" transform="translate(117.9 321.7845) scale(0.16 -0.16)">
     <defs>
      <path id="TimesNewRomanPSMT-56" d="M 4544 4238 
L 4544 4122 
Q 4319 4081 4203 3978 
Q 4038 3825 3909 3509 
L 2431 -97 
L 2316 -97 
L 728 3556 
Q 606 3838 556 3900 
Q 478 3997 364 4051 
Q 250 4106 56 4122 
L 56 4238 
L 1788 4238 
L 1788 4122 
Q 1494 4094 1406 4022 
Q 1319 3950 1319 3838 
Q 1319 3681 1463 3350 
L 2541 866 
L 3541 3319 
Q 3688 3681 3688 3822 
Q 3688 3913 3597 3995 
Q 3506 4078 3291 4113 
Q 3275 4116 3238 4122 
L 3238 4238 
L 4544 4238 
z
" transform="scale(0.015625)"/>
      <path id="TimesNewRomanPSMT-75" d="M 2709 2863 
L 2709 1128 
Q 2709 631 2732 520 
Q 2756 409 2807 365 
Q 2859 322 2928 322 
Q 3025 322 3147 375 
L 3191 266 
L 2334 -88 
L 2194 -88 
L 2194 519 
Q 1825 119 1631 15 
Q 1438 -88 1222 -88 
Q 981 -88 804 51 
Q 628 191 559 409 
Q 491 628 491 1028 
L 491 2306 
Q 491 2509 447 2587 
Q 403 2666 317 2708 
Q 231 2750 6 2747 
L 6 2863 
L 1009 2863 
L 1009 947 
Q 1009 547 1148 422 
Q 1288 297 1484 297 
Q 1619 297 1789 381 
Q 1959 466 2194 703 
L 2194 2325 
Q 2194 2569 2105 2655 
Q 2016 2741 1734 2747 
L 1734 2863 
L 2709 2863 
z
" transform="scale(0.015625)"/>
      <path id="TimesNewRomanPSMT-62" d="M 984 2369 
Q 1400 2947 1881 2947 
Q 2322 2947 2650 2570 
Q 2978 2194 2978 1541 
Q 2978 778 2472 313 
Q 2038 -88 1503 -88 
Q 1253 -88 995 3 
Q 738 94 469 275 
L 469 3241 
Q 469 3728 445 3840 
Q 422 3953 372 3993 
Q 322 4034 247 4034 
Q 159 4034 28 3984 
L -16 4094 
L 844 4444 
L 984 4444 
L 984 2369 
z
M 984 2169 
L 984 456 
Q 1144 300 1314 220 
Q 1484 141 1663 141 
Q 1947 141 2192 453 
Q 2438 766 2438 1363 
Q 2438 1913 2192 2208 
Q 1947 2503 1634 2503 
Q 1469 2503 1303 2419 
Q 1178 2356 984 2169 
z
" transform="scale(0.015625)"/>
      <path id="TimesNewRomanPSMT-20" transform="scale(0.015625)"/>
      <path id="TimesNewRomanPSMT-3c" d="M 116 2206 
L 3478 3663 
L 3478 3391 
L 584 2134 
L 3478 866 
L 3478 584 
L 116 2053 
L 116 2206 
z
" transform="scale(0.015625)"/>
      <path id="TimesNewRomanPSMT-70" d="M -6 2578 
L 875 2934 
L 994 2934 
L 994 2266 
Q 1216 2644 1439 2795 
Q 1663 2947 1909 2947 
Q 2341 2947 2628 2609 
Q 2981 2197 2981 1534 
Q 2981 794 2556 309 
Q 2206 -88 1675 -88 
Q 1444 -88 1275 -22 
Q 1150 25 994 166 
L 994 -706 
Q 994 -1000 1030 -1079 
Q 1066 -1159 1155 -1206 
Q 1244 -1253 1478 -1253 
L 1478 -1369 
L -22 -1369 
L -22 -1253 
L 56 -1253 
Q 228 -1256 350 -1188 
Q 409 -1153 442 -1076 
Q 475 -1000 475 -688 
L 475 2019 
Q 475 2297 450 2372 
Q 425 2447 370 2484 
Q 316 2522 222 2522 
Q 147 2522 31 2478 
L -6 2578 
z
M 994 2081 
L 994 1013 
Q 994 666 1022 556 
Q 1066 375 1236 237 
Q 1406 100 1666 100 
Q 1978 100 2172 344 
Q 2425 663 2425 1241 
Q 2425 1897 2138 2250 
Q 1938 2494 1663 2494 
Q 1513 2494 1366 2419 
Q 1253 2363 994 2081 
z
" transform="scale(0.015625)"/>
      <path id="TimesNewRomanPSMT-6a" d="M 925 4447 
Q 1059 4447 1153 4353 
Q 1247 4259 1247 4125 
Q 1247 3994 1153 3900 
Q 1059 3806 925 3806 
Q 794 3806 700 3900 
Q 606 3994 606 4125 
Q 606 4259 700 4353 
Q 794 4447 925 4447 
z
M 1194 2947 
L 1194 66 
Q 1194 -669 881 -1025 
Q 569 -1381 69 -1381 
Q -216 -1381 -353 -1278 
Q -491 -1175 -491 -1066 
Q -491 -956 -414 -878 
Q -338 -800 -234 -800 
Q -153 -800 -69 -841 
Q -16 -863 136 -998 
Q 288 -1134 391 -1134 
Q 466 -1134 537 -1076 
Q 609 -1019 643 -883 
Q 678 -747 678 -294 
L 678 1744 
Q 678 2216 650 2350 
Q 628 2453 581 2492 
Q 534 2531 453 2531 
Q 366 2531 241 2484 
L 197 2597 
L 1059 2947 
L 1194 2947 
z
" transform="scale(0.015625)"/>
     </defs>
     <use xlink:href="#TimesNewRomanPSMT-56"/>
     <use xlink:href="#TimesNewRomanPSMT-73" x="72.216797"/>
     <use xlink:href="#TimesNewRomanPSMT-75" x="111.132812"/>
     <use xlink:href="#TimesNewRomanPSMT-62" x="161.132812"/>
     <use xlink:href="#TimesNewRomanPSMT-20" x="211.132812"/>
     <use xlink:href="#TimesNewRomanPSMT-3c" x="236.132812"/>
     <use xlink:href="#TimesNewRomanPSMT-20" x="292.529297"/>
     <use xlink:href="#TimesNewRomanPSMT-56" x="315.779297"/>
     <use xlink:href="#TimesNewRomanPSMT-70" x="387.996094"/>
     <use xlink:href="#TimesNewRomanPSMT-72" x="437.996094"/>
     <use xlink:href="#TimesNewRomanPSMT-6f" x="471.296875"/>
     <use xlink:href="#TimesNewRomanPSMT-6a" x="521.296875"/>
    </g>
   </g>
   <g id="text_21">
    <!-- Vsub &gt; Vproj -->
    <g style="fill: #ff0000" transform="translate(532.2475 321.7845) scale(0.16 -0.16)">
     <defs>
      <path id="TimesNewRomanPSMT-3e" d="M 3478 2041 
L 116 584 
L 116 853 
L 3013 2109 
L 116 3378 
L 116 3663 
L 3478 2194 
L 3478 2041 
z
" transform="scale(0.015625)"/>
     </defs>
     <use xlink:href="#TimesNewRomanPSMT-56"/>
     <use xlink:href="#TimesNewRomanPSMT-73" x="72.216797"/>
     <use xlink:href="#TimesNewRomanPSMT-75" x="111.132812"/>
     <use xlink:href="#TimesNewRomanPSMT-62" x="161.132812"/>
     <use xlink:href="#TimesNewRomanPSMT-20" x="211.132812"/>
     <use xlink:href="#TimesNewRomanPSMT-3e" x="236.132812"/>
     <use xlink:href="#TimesNewRomanPSMT-20" x="292.529297"/>
     <use xlink:href="#TimesNewRomanPSMT-56" x="315.779297"/>
     <use xlink:href="#TimesNewRomanPSMT-70" x="387.996094"/>
     <use xlink:href="#TimesNewRomanPSMT-72" x="437.996094"/>
     <use xlink:href="#TimesNewRomanPSMT-6f" x="471.296875"/>
     <use xlink:href="#TimesNewRomanPSMT-6a" x="521.296875"/>
    </g>
   </g>
   <g id="legend_1">
    <g id="line2d_45">
     <path d="M 540.0225 74.34 
L 558.0225 74.34 
L 576.0225 74.34 
" style="fill: none; stroke-dasharray: 7.4,3.2; stroke-dashoffset: 0; stroke: #ffa500; stroke-width: 2"/>
    </g>
    <g id="text_22">
     <!-- λ=0.3 -->
     <g transform="translate(590.4225 80.64) scale(0.18 -0.18)">
      <defs>
       <path id="TimesNewRomanPSMT-3bb" d="M 3022 900 
L 3134 900 
Q 3134 406 2973 181 
Q 2813 -44 2572 -44 
Q 2375 -44 2194 104 
Q 2013 253 1869 900 
L 1600 2113 
L 669 0 
L 78 0 
L 1416 2881 
Q 1309 3441 1159 3709 
Q 1009 3978 788 3978 
Q 609 3978 476 3842 
Q 344 3706 328 3422 
L 216 3422 
Q 225 3881 400 4157 
Q 575 4434 838 4434 
Q 1006 4434 1157 4295 
Q 1309 4156 1420 3820 
Q 1531 3484 1766 2428 
L 1988 1438 
Q 2122 822 2270 614 
Q 2419 406 2625 406 
Q 2975 406 3022 900 
z
" transform="scale(0.015625)"/>
       <path id="TimesNewRomanPSMT-3d" d="M 116 2759 
L 3488 2759 
L 3488 2503 
L 116 2503 
L 116 2759 
z
M 116 1741 
L 3488 1741 
L 3488 1484 
L 116 1484 
L 116 1741 
z
" transform="scale(0.015625)"/>
      </defs>
      <use xlink:href="#TimesNewRomanPSMT-3bb"/>
      <use xlink:href="#TimesNewRomanPSMT-3d" x="48.486328"/>
      <use xlink:href="#TimesNewRomanPSMT-30" x="104.882812"/>
      <use xlink:href="#TimesNewRomanPSMT-2e" x="154.882812"/>
      <use xlink:href="#TimesNewRomanPSMT-33" x="179.882812"/>
     </g>
    </g>
    <g id="line2d_46">
     <path d="M 540.0225 99.790312 
L 558.0225 99.790312 
L 576.0225 99.790312 
" style="fill: none; stroke-dasharray: 12.8,3.2,2,3.2; stroke-dashoffset: 0; stroke: #ff0000; stroke-width: 2"/>
    </g>
    <g id="text_23">
     <!-- λ=0.4 -->
     <g transform="translate(590.4225 106.090312) scale(0.18 -0.18)">
      <use xlink:href="#TimesNewRomanPSMT-3bb"/>
      <use xlink:href="#TimesNewRomanPSMT-3d" x="48.486328"/>
      <use xlink:href="#TimesNewRomanPSMT-30" x="104.882812"/>
      <use xlink:href="#TimesNewRomanPSMT-2e" x="154.882812"/>
      <use xlink:href="#TimesNewRomanPSMT-34" x="179.882812"/>
     </g>
    </g>
    <g id="line2d_47">
     <path d="M 540.0225 125.240625 
L 558.0225 125.240625 
L 576.0225 125.240625 
" style="fill: none; stroke-dasharray: 12.8,3.2,2,3.2; stroke-dashoffset: 0; stroke: #0000ff; stroke-width: 2"/>
    </g>
    <g id="text_24">
     <!-- λ=0.5 -->
     <g transform="translate(590.4225 131.540625) scale(0.18 -0.18)">
      <use xlink:href="#TimesNewRomanPSMT-3bb"/>
      <use xlink:href="#TimesNewRomanPSMT-3d" x="48.486328"/>
      <use xlink:href="#TimesNewRomanPSMT-30" x="104.882812"/>
      <use xlink:href="#TimesNewRomanPSMT-2e" x="154.882812"/>
      <use xlink:href="#TimesNewRomanPSMT-35" x="179.882812"/>
     </g>
    </g>
    <g id="line2d_48">
     <path d="M 540.0225 150.690937 
L 558.0225 150.690937 
L 576.0225 150.690937 
" style="fill: none; stroke-dasharray: 2,3.3; stroke-dashoffset: 0; stroke: #008000; stroke-width: 2"/>
    </g>
    <g id="text_25">
     <!-- λ=0.6 -->
     <g transform="translate(590.4225 156.990937) scale(0.18 -0.18)">
      <use xlink:href="#TimesNewRomanPSMT-3bb"/>
      <use xlink:href="#TimesNewRomanPSMT-3d" x="48.486328"/>
      <use xlink:href="#TimesNewRomanPSMT-30" x="104.882812"/>
      <use xlink:href="#TimesNewRomanPSMT-2e" x="154.882812"/>
      <use xlink:href="#TimesNewRomanPSMT-36" x="179.882812"/>
     </g>
    </g>
   </g>
  </g>
 </g>
 <defs>
  <clipPath id="pbbef50d211">
   <rect x="90" y="51.84" width="558" height="332.64"/>
  </clipPath>
 </defs>
</svg>
